<svg width="25" height="25" viewBox="0 0 25 25" fill="none" xmlns="http://www.w3.org/2000/svg">
<path d="M12.5853 2.73563C15.7659 2.73563 16.1416 2.74732 17.3987 2.80579C18.5593 2.85841 19.1907 3.05282 19.6102 3.21653C20.1657 3.43286 20.5632 3.69012 20.9798 4.10671C21.3964 4.52329 21.6551 4.92088 21.87 5.47632C22.0337 5.89583 22.2267 6.52729 22.2808 7.68788C22.3378 8.94349 22.3509 9.32061 22.3509 12.5013C22.3509 15.682 22.3392 16.0576 22.2808 17.3147C22.2281 18.4767 22.0337 19.1067 21.87 19.5262C21.6537 20.0817 21.3964 20.4793 20.9798 20.8959C20.5632 21.3124 20.1657 21.5712 19.6102 21.786C19.1907 21.9497 18.5593 22.1427 17.3987 22.1968C16.1431 22.2538 15.7659 22.2655 12.5853 22.2655C9.40459 22.2655 9.02893 22.2538 7.77187 22.1968C6.61127 22.1441 5.97982 21.9497 5.56031 21.786C5.00486 21.5697 4.60728 21.3124 4.19069 20.8959C3.7741 20.4793 3.51538 20.0817 3.29905 19.5262C3.1368 19.1067 2.94239 18.4767 2.88831 17.3147C2.83131 16.0591 2.81961 15.682 2.81961 12.5013C2.81961 9.32061 2.83131 8.94495 2.88831 7.68788C2.94093 6.52583 3.13534 5.89583 3.29905 5.47632C3.51538 4.92088 3.7741 4.52329 4.19069 4.10671C4.60728 3.69012 5.00486 3.4314 5.56031 3.21653C5.97982 3.05282 6.61127 2.85987 7.77187 2.80579C9.02747 2.74878 9.40459 2.73563 12.5853 2.73563ZM12.5853 0.589844C9.35051 0.589844 8.94562 0.603 7.67393 0.661468C6.40664 0.719936 5.53984 0.92019 4.78268 1.21545C3.99921 1.51949 3.33559 1.9273 2.67344 2.58946C2.01129 3.25161 1.60347 3.91669 1.29944 4.6987C1.00564 5.45586 0.80392 6.32265 0.745451 7.58995C0.686983 8.86017 0.673828 9.26653 0.673828 12.5013C0.673828 15.736 0.686983 16.1409 0.745451 17.4126C0.802458 18.6799 1.00417 19.5467 1.29944 20.3039C1.60347 21.0873 2.01129 21.751 2.67344 22.4131C3.33559 23.0753 3.99921 23.4831 4.78268 23.7871C5.53984 24.0809 6.40664 24.2826 7.67393 24.3411C8.94416 24.3996 9.35051 24.4127 12.5853 24.4127C15.82 24.4127 16.2249 24.3996 17.4966 24.3411C18.7639 24.2826 19.6292 24.0824 20.3878 23.7871C21.1713 23.4831 21.8349 23.0753 22.4971 22.4131C23.1592 21.751 23.5671 21.0859 23.8711 20.3039C24.1649 19.5467 24.3666 18.6799 24.4251 17.4126C24.4835 16.1424 24.4967 15.736 24.4967 12.5013C24.4967 9.26653 24.4835 8.86163 24.4251 7.58995C24.3666 6.32265 24.1664 5.45586 23.8711 4.6987C23.5671 3.91522 23.1592 3.25161 22.4971 2.58946C21.8349 1.9273 21.1713 1.51949 20.3878 1.21545C19.6307 0.921652 18.7639 0.719936 17.4966 0.661468C16.2264 0.603 15.82 0.589844 12.5853 0.589844Z" fill="#DB1514"/>
<path d="M12.5845 6.38477C9.20652 6.38477 6.46875 9.12254 6.46875 12.5005C6.46875 15.8785 9.20652 18.6163 12.5845 18.6163C15.9625 18.6163 18.7003 15.8785 18.7003 12.5005C18.7003 9.12254 15.9625 6.38477 12.5845 6.38477ZM12.5845 16.4705C10.392 16.4705 8.61453 14.6931 8.61453 12.5005C8.61453 10.308 10.392 8.53055 12.5845 8.53055C14.7771 8.53055 16.5545 10.308 16.5545 12.5005C16.5545 14.6931 14.7771 16.4705 12.5845 16.4705Z" fill="#DB1514"/>
<path d="M20.3728 6.14244C20.3728 6.93176 19.7325 7.57199 18.9432 7.57199C18.1539 7.57199 17.5137 6.93176 17.5137 6.14244C17.5137 5.35312 18.1539 4.71289 18.9432 4.71289C19.7325 4.71289 20.3728 5.35312 20.3728 6.14244Z" fill="#DB1514"/>
</svg>
