<svg xmlns="http://www.w3.org/2000/svg" width="24" height="24" viewBox="0 0 24 24"><g transform="translate(-492 -188)"><path d="M7.75,1.5h-7A.755.755,0,0,1,0,.75.755.755,0,0,1,.75,0h7A.755.755,0,0,1,8.5.75.755.755,0,0,1,7.75,1.5Z" transform="translate(505.25 191.75)" fill="#24099a"></path><path d="M7.75,1.5h-7A.755.755,0,0,1,0,.75.755.755,0,0,1,.75,0h7A.755.755,0,0,1,8.5.75.755.755,0,0,1,7.75,1.5Z" transform="translate(505.25 196.75)" fill="#cac4e7"></path><path d="M18.75,1.5H.75A.755.755,0,0,1,0,.75.755.755,0,0,1,.75,0h18a.755.755,0,0,1,.75.75A.755.755,0,0,1,18.75,1.5Z" transform="translate(494.25 201.75)" fill="#24099a"></path><path d="M18.75,1.5H.75A.755.755,0,0,1,0,.75.755.755,0,0,1,.75,0h18a.755.755,0,0,1,.75.75A.755.755,0,0,1,18.75,1.5Z" transform="translate(494.25 206.75)" fill="#cac4e7"></path><path d="M4.562,0H1.929A1.7,1.7,0,0,0,0,1.929V4.571A1.7,1.7,0,0,0,1.929,6.5H4.571A1.7,1.7,0,0,0,6.5,4.571V1.929A1.705,1.705,0,0,0,4.562,0Z" transform="translate(495.25 191.75)" fill="#cac4e7"></path><path d="M0,0H24V24H0Z" transform="translate(492 188)" fill="none" opacity="0"></path></g></svg>