<svg
    xmlns="http://www.w3.org/2000/svg"
    width="24"
    height="24"
    viewBox="0 0 24 24"
>
    <g transform="translate(-236 -252)">
    <path
        d="M13,5.81V6.5H0V0H7.19C10.83,0,13,2.17,13,5.81Z"
        transform="translate(258 261) rotate(90)"
        fill="#e1e0e5"
    ></path>
    <path
        d="M13,0V.69C13,4.33,10.83,6.5,7.19,6.5H0V0Z"
        transform="translate(244.5 261) rotate(90)"
        fill="#e1e0e5"
    ></path>
    <path
        d="M7,0V20H5.81C2.17,20,0,17.83,0,14.19V5.81C0,2.17,2.17,0,5.81,0Z"
        transform="translate(258 254) rotate(90)"
        fill="#24099a"
    ></path>
    <path
        d="M0,0H13V7H0Z"
        transform="translate(251.5 261) rotate(90)"
        fill="#cac4e7"
    ></path>
    <path
        d="M0,0H24V24H0Z"
        transform="translate(236 252)"
        fill="none"
        opacity="0"
    ></path>
    </g>
</svg>
