<svg width="23" height="23" viewBox="0 0 23 23" fill="none" xmlns="http://www.w3.org/2000/svg">
<path d="M5.53849 7.64258H1.04297V22.1663H5.53849V7.64258Z" fill="#214254"/>
<path d="M3.26935 5.73973C4.73848 5.73973 5.92737 4.53928 5.92737 3.05859C5.92737 1.5779 4.73703 0.378906 3.26935 0.378906C1.80166 0.378906 0.611328 1.57935 0.611328 3.05859C0.611328 4.53784 1.80166 5.73973 3.26935 5.73973Z" fill="#214254"/>
<path d="M12.7276 14.542C12.7276 12.5008 13.6665 11.283 15.4665 11.283C17.1191 11.283 17.9136 12.4503 17.9136 14.542V22.1665H22.3889V12.9703C22.3889 9.08006 20.183 7.19922 17.1046 7.19922C14.0262 7.19922 12.7276 9.59866 12.7276 9.59866V7.6427H8.41406V22.1665H12.7276V14.542Z" fill="#214254"/>
</svg>
